<svg width="40" height="42" xmlns="http://www.w3.org/2000/svg" xmlns:xlink="http://www.w3.org/1999/xlink" xml:space="preserve" overflow="hidden"><defs><clipPath id="clip0"><rect x="452" y="610" width="40" height="42"/></clipPath><clipPath id="clip1"><rect x="453" y="611" width="38" height="41"/></clipPath><clipPath id="clip2"><rect x="453" y="611" width="38" height="41"/></clipPath><clipPath id="clip3"><rect x="453" y="611" width="253" height="41"/></clipPath></defs><g clip-path="url(#clip0)" transform="translate(-452 -610)"><g clip-path="url(#clip1)"><g clip-path="url(#clip2)"><g clip-path="url(#clip3)"><path d="M17.5714 0 35.1429 10.374 35.1429 31.121 17.5714 41 0 31.121 0 10.374Z" fill="#FE8D14" fill-rule="nonzero" fill-opacity="1" transform="matrix(1.03433 0 0 1 453 611)"/><path d="M35.1429 10.25 35.1429 31.2381 17.5714 41 17.5714 19.5238Z" fill="#EC5324" fill-rule="nonzero" fill-opacity="0.5" transform="matrix(1.03433 0 0 1 453 611)"/><path d="M17.5714 0 35.1429 10.0001 17.5714 19.5238 0 10.0001Z" fill="#FEDD15" fill-rule="nonzero" fill-opacity="0.5" transform="matrix(1.03433 0 0 1 453 611)"/><path d="M46.8602 19.5496C46.8017 17.4781 47.5853 15.472 49.0304 13.9937 50.4756 12.5154 52.4575 11.6926 54.5194 11.7147 58.9002 11.7147 62.1786 15.1468 62.1786 19.5496 62.2017 21.4265 61.5543 23.2496 60.354 24.6878L61.9444 26.2567 60.8126 27.404 59.2027 25.8351C57.8499 26.8623 56.1952 27.4075 54.4999 27.3844 50.1385 27.3844 46.8602 24.0406 46.8602 19.5496ZM48.6555 19.5496C48.6555 23.1287 51.1923 25.737 54.5194 25.737 55.8073 25.737 57.0562 25.3448 57.9733 24.6388L56.3049 23.0208 57.4172 21.8539 59.0954 23.4719C59.9685 22.3564 60.4243 20.9682 60.3833 19.5496 60.3833 16.0195 57.8465 13.3621 54.5194 13.3621 51.1923 13.3621 48.6652 16.0097 48.6652 19.5496L48.6555 19.5496ZM68.3254 27.3844C65.7203 27.3844 64.3739 25.4429 64.3739 22.8933L64.3739 15.8822 66.0716 15.8822 66.0716 22.962C66.0716 24.7466 67.2034 25.8253 68.7059 25.8253 70.4232 25.8253 71.6038 24.5505 71.6038 22.6972L71.6038 15.8822 73.321 15.8822 73.321 27.1 71.6233 27.1 71.6233 25.4821C70.9481 26.6698 69.6865 27.3976 68.3254 27.3844ZM75.409 23.6484C75.409 21.5107 77.1847 19.9614 79.702 19.9614 81.1168 19.9614 82.19 20.5007 82.6388 20.9714L82.6388 19.5986C82.6388 18.0199 81.5851 17.1079 79.9362 17.1079 78.5604 17.1079 77.4482 17.608 76.6481 18.0885L75.9651 16.8334C77.1968 16.0453 78.6225 15.6175 80.0825 15.5978 83.1364 15.5978 84.3365 17.304 84.3365 19.6967L84.3365 27.1 82.873 27.1 82.6779 26.1489C81.9056 26.9966 80.7949 27.4503 79.6532 27.3844 77.214 27.3844 75.409 25.8253 75.409 23.6484ZM77.1262 23.6288C77.1262 24.9232 78.2189 25.9528 79.9362 25.9528 81.5656 25.9528 82.7071 24.982 82.7071 23.6288 82.7071 22.2266 81.5851 21.3146 79.9167 21.3146 78.2189 21.3146 77.1262 22.3148 77.1262 23.6288ZM92.0835 15.5978C94.6789 15.5978 96.0156 17.5394 96.0156 20.0889L96.0156 27.1 94.3179 27.1 94.3179 20.0202C94.3179 18.2356 93.1958 17.1569 91.6835 17.1569 89.9565 17.1569 88.7759 18.4317 88.7759 20.285L88.7759 27.1 87.0782 27.1 87.0782 15.8822 88.7564 15.8822 88.7564 17.5002C89.4413 16.3077 90.7137 15.5802 92.0835 15.5978ZM98.9719 15.8822 98.9719 13.5288 100.679 13.5288 100.679 15.8822 103.119 15.8822 103.119 17.3236 100.679 17.3236 100.679 23.1091C100.679 25.1977 101.284 25.6978 102.738 25.6978L103.216 25.6782 103.216 27.1883C103.216 27.1883 102.758 27.2471 102.182 27.2471 99.9476 27.2471 98.9817 25.7763 98.9817 23.2562L98.9817 17.3236 97.6743 17.3236 97.6743 15.8822 98.9817 15.8822 98.9719 15.8822ZM109.022 27.3844C106.426 27.3844 105.07 25.4429 105.07 22.8933L105.07 15.8822 106.768 15.8822 106.768 22.962C106.768 24.7466 107.9 25.8253 109.402 25.8253 111.119 25.8253 112.3 24.5505 112.3 22.6972L112.3 15.8822 114.017 15.8822 114.017 27.1 112.329 27.1 112.329 25.4821C111.651 26.676 110.38 27.4047 109.012 27.3844L109.022 27.3844ZM132.438 19.8339 132.438 27.1 130.74 27.1 130.74 20.3438C130.74 18.2356 129.882 17.1569 128.233 17.1569 126.672 17.1569 125.481 18.2748 125.481 20.3733L125.481 27.1 123.784 27.1 123.784 20.0202C123.784 18.2356 122.808 17.1569 121.237 17.1569 119.754 17.1569 118.525 18.4023 118.525 20.3046L118.525 27.1 116.837 27.1 116.837 15.8822 118.505 15.8822 118.505 17.5002C119.106 16.3069 120.336 15.5669 121.667 15.5978 123.335 15.5978 124.516 16.4215 125.033 17.657 125.696 16.3136 127.033 15.5978 128.613 15.5978 131.111 15.5978 132.438 17.3629 132.438 19.8339ZM152.04 24.1191 152.576 25.6586C151.209 26.7894 149.489 27.4004 147.717 27.3844 143.327 27.3844 140.107 24.0112 140.107 19.5496 140.107 15.1075 143.424 11.7147 147.678 11.7147 149.932 11.7147 151.542 12.6463 152.333 13.2935L151.776 14.8428C150.627 13.9062 149.197 13.3847 147.717 13.3621 144.4 13.3621 141.902 16.0293 141.902 19.5496 141.902 23.0699 144.283 25.737 147.757 25.737 149.331 25.7287 150.85 25.1548 152.04 24.1191ZM155.796 21.4911C155.796 24.0112 157.484 25.8253 159.875 25.8253 162.275 25.8253 163.992 23.9916 163.992 21.4911 163.992 19.0102 162.275 17.1569 159.875 17.1569 157.465 17.1569 155.796 19.0299 155.796 21.4911ZM154.05 21.4911C154.05 18.1081 156.567 15.6076 159.894 15.6076 161.455 15.5691 162.962 16.1779 164.062 17.291 165.162 18.404 165.758 19.9231 165.709 21.4911 165.709 24.8545 163.221 27.3746 159.875 27.3746 156.528 27.3746 154.05 24.9035 154.05 21.4911ZM183.486 19.8241 183.486 27.1 181.789 27.1 181.789 20.3438C181.789 18.2356 180.93 17.1569 179.271 17.1569 177.71 17.1569 176.53 18.2748 176.53 20.3733L176.53 27.1 174.832 27.1 174.832 20.0202C174.832 18.2356 173.847 17.1569 172.276 17.1569 170.793 17.1569 169.573 18.4023 169.573 20.3046L169.573 27.1 167.875 27.1 167.875 15.8822 169.554 15.8822 169.554 17.5002C170.153 16.3102 171.378 15.5708 172.705 15.5978 174.383 15.5978 175.564 16.4215 176.081 17.657 176.744 16.3136 178.071 15.5978 179.662 15.5978 182.15 15.5978 183.486 17.3629 183.486 19.8339L183.486 19.8241ZM186.316 31.1302 186.316 15.8822 187.945 15.8822 187.945 17.6472C188.813 16.3501 190.273 15.5796 191.829 15.5978 195.009 15.5978 197.292 18.0395 197.292 21.4715 197.292 24.9428 195.117 27.3844 191.965 27.3844 189.623 27.3844 188.355 25.8743 188.014 25.286L188.014 31.1302 186.316 31.1302ZM187.945 21.4715C187.945 24.2269 189.663 25.8253 191.77 25.8253 193.956 25.8253 195.546 24.0406 195.546 21.4715 195.546 18.8337 193.868 17.1569 191.721 17.1569 189.409 17.1569 187.945 19.1181 187.945 21.4715ZM203.312 27.3844C200.717 27.3844 199.371 25.4429 199.371 22.8933L199.371 15.8822 201.059 15.8822 201.059 22.962C201.059 24.7466 202.2 25.8253 203.703 25.8253 205.42 25.8253 206.601 24.5505 206.601 22.6972L206.601 15.8822 208.318 15.8822 208.318 27.1 206.62 27.1 206.62 25.4821C205.943 26.6729 204.677 27.4012 203.312 27.3844ZM211.255 15.8822 211.255 13.5288 212.952 13.5288 212.952 15.8822 215.401 15.8822 215.401 17.3236 212.962 17.3236 212.962 23.1091C212.962 25.1977 213.547 25.6978 215.011 25.6978L215.489 25.6782 215.489 27.1883C215.489 27.1883 215.04 27.2471 214.455 27.2471 212.221 27.2471 211.255 25.7763 211.255 23.2562L211.255 17.3236 209.957 17.3236 209.957 15.8822 211.264 15.8822 211.255 15.8822ZM217.47 27.1 217.47 15.8822 219.167 15.8822 219.167 27.1 217.47 27.1ZM217.148 12.9895C217.148 12.3423 217.665 11.8226 218.309 11.8226 218.972 11.8226 219.489 12.3423 219.489 12.9993 219.489 13.3131 219.365 13.6139 219.143 13.8348 218.921 14.0558 218.621 14.1786 218.309 14.176 217.665 14.176 217.148 13.6563 217.148 12.9993L217.148 12.9895ZM227.09 15.5978C229.685 15.5978 231.012 17.5394 231.012 20.0889L231.012 27.1 229.324 27.1 229.324 20.0202C229.324 18.2356 228.202 17.1569 226.68 17.1569 224.963 17.1569 223.782 18.4317 223.782 20.285L223.782 27.1 222.085 27.1 222.085 15.8822 223.763 15.8822 223.763 17.5002C224.446 16.3108 225.714 15.5838 227.08 15.5978L227.09 15.5978ZM234.447 30.1202 235.052 28.7866C235.481 29.0416 236.808 29.7084 238.418 29.7084 240.545 29.7084 242.35 28.8259 242.35 26.3254L242.35 25.335C241.502 26.6445 240.04 27.4199 238.486 27.3844 235.286 27.3844 233.1 24.9428 233.1 21.5107 233.1 18.0591 235.305 15.5978 238.467 15.5978 240.055 15.5706 241.546 16.3625 242.418 17.6963L242.418 15.8822 244.048 15.8822 244.048 25.5507C244.048 29.7966 241.667 31.2381 238.447 31.2381 236.984 31.2381 235.422 30.7282 234.447 30.1202ZM242.418 21.5107C242.418 18.7945 240.72 17.1569 238.593 17.1569 236.427 17.1569 234.818 18.9416 234.818 21.5107 234.818 24.1191 236.486 25.8253 238.633 25.8253 240.935 25.8253 242.418 23.9328 242.418 21.5107Z" fill="#FFFFFF" fill-rule="nonzero" fill-opacity="0.9" transform="matrix(1.03433 0 0 1 453 611)"/></g></g></g></g></svg>