<svg xmlns="http://www.w3.org/2000/svg" width="250" height="42" viewBox="0 0 250 42">
  <g fill="none" fill-rule="evenodd">
    <polygon fill="#FE8D14" fill-rule="nonzero" points="18 0 36 10.627 36 31.88 18 42 0 31.88 0 10.627"/>
    <polygon fill="#EC5324" fill-rule="nonzero" points="36 10.5 36 32 18 42 18 20" opacity=".5"/>
    <polygon fill="#FEDD15" fill-rule="nonzero" points="18 0 36 10.244 18 20 0 10.244" opacity=".5"/>
    <path fill="#FFFFFF" fill-rule="nonzero" d="M48.0031302,20.0263854 C47.9432014,17.9043478 48.745936,15.8493289 50.2263042,14.3350092 C51.7066724,12.8206896 53.7369374,11.9777355 55.8491244,12.0004473 C60.3368332,12.0004473 63.6951186,15.5161899 63.6951186,20.0263854 C63.7187792,21.9491383 63.0556323,23.8166791 61.8260729,25.2899542 L63.4552411,26.8971508 L62.295833,28.0724133 L60.646675,26.4652167 C59.2608969,27.5175132 57.5658392,28.0759387 55.8291346,28.0523234 C51.3614156,28.0523234 48.0031302,24.6269856 48.0031302,20.0263854 Z M49.8421913,20.0263854 C49.8421913,23.6928026 52.4408645,26.3647669 55.8491244,26.3647669 C57.1684508,26.3647669 58.4477977,25.9629678 59.387318,25.2397293 L57.6781906,23.5823078 L58.8176088,22.3869554 L60.5367311,24.0443768 C61.431106,22.9016395 61.898019,21.479662 61.8560576,20.0263854 C61.8560576,16.410193 59.2573843,13.6880038 55.8491244,13.6880038 C52.4408645,13.6880038 49.8521862,16.400148 49.8521862,20.0263854 L49.8421913,20.0263854 Z M69.9919038,28.0523234 C67.3232663,28.0523234 65.9439705,26.0634176 65.9439705,23.4517231 L65.9439705,16.2695633 L67.6830826,16.2695633 L67.6830826,23.522038 C67.6830826,25.3502241 68.8424906,26.4551717 70.3817048,26.4551717 C72.1408066,26.4551717 73.3501892,25.1493245 73.3501892,23.2508235 L73.3501892,16.2695633 L75.1092911,16.2695633 L75.1092911,27.761019 L73.370179,27.761019 L73.370179,26.1035975 C72.6785349,27.3203044 71.3861212,28.0658209 69.9919038,28.0523234 Z M77.248199,24.2251865 C77.248199,22.0353811 79.0672703,20.4482745 81.6459538,20.4482745 C83.0952138,20.4482745 84.1946525,21.0007483 84.6544178,21.4829073 L84.6544178,20.0766102 C84.6544178,18.4593687 83.5749689,17.5251856 81.8858313,17.5251856 C80.4765508,17.5251856 79.3371325,18.0374796 78.517551,18.5296835 L77.8179082,17.2439262 C79.0796819,16.4366932 80.5401568,15.9984423 82.0357547,15.9782589 C85.1641575,15.9782589 86.3935299,17.7260852 86.3935299,20.17706 L86.3935299,27.761019 L84.8942953,27.761019 L84.6943974,26.786656 C83.9033072,27.6550396 82.7655541,28.1197983 81.5959793,28.0523234 C79.097255,28.0523234 77.248199,26.4551717 77.248199,24.2251865 Z M79.0073009,24.2050965 C79.0073009,25.5310337 80.1267294,26.5857565 81.8858313,26.5857565 C83.5549791,26.5857565 84.7243821,25.5913036 84.7243821,24.2050965 C84.7243821,22.7686645 83.5749689,21.8344815 81.8658415,21.8344815 C80.1267294,21.8344815 79.0073009,22.8590694 79.0073009,24.2050965 Z M94.3294781,15.9782589 C96.9881208,15.9782589 98.3574217,17.9671647 98.3574217,20.5788592 L98.3574217,27.761019 L96.6183096,27.761019 L96.6183096,20.5085443 C96.6183096,18.6803582 95.4688964,17.5754105 93.9196874,17.5754105 C92.1505906,17.5754105 90.941208,18.8812578 90.941208,20.7797588 L90.941208,27.761019 L89.2020959,27.761019 L89.2020959,16.2695633 L90.9212182,16.2695633 L90.9212182,17.9269848 C91.6227809,16.7054874 92.926238,15.9602154 94.3294781,15.9782589 Z M101.385875,16.2695633 L101.385875,13.8587684 L103.134982,13.8587684 L103.134982,16.2695633 L105.633707,16.2695633 L105.633707,17.7461752 L103.134982,17.7461752 L103.134982,23.6727126 C103.134982,25.8122931 103.754666,26.324587 105.243906,26.324587 L105.733656,26.3044971 L105.733656,27.8514238 C105.733656,27.8514238 105.263896,27.9116937 104.674197,27.9116937 C102.385365,27.9116937 101.39587,26.4049468 101.39587,23.8233873 L101.39587,17.7461752 L100.056554,17.7461752 L100.056554,16.2695633 L101.39587,16.2695633 L101.385875,16.2695633 Z M111.680619,28.0523234 C109.021977,28.0523234 107.632686,26.0634176 107.632686,23.4517231 L107.632686,16.2695633 L109.371798,16.2695633 L109.371798,23.522038 C109.371798,25.3502241 110.531206,26.4551717 112.07042,26.4551717 C113.829522,26.4551717 115.038905,25.1493245 115.038905,23.2508235 L115.038905,16.2695633 L116.798007,16.2695633 L116.798007,27.761019 L115.06889,27.761019 L115.06889,26.1035975 C114.373758,27.3266458 113.071962,28.073157 111.670625,28.0523234 L111.680619,28.0523234 Z M135.668372,20.3176897 L135.668372,27.761019 L133.92926,27.761019 L133.92926,20.8400286 C133.92926,18.6803582 133.049709,17.5754105 131.360572,17.5754105 C129.761388,17.5754105 128.542011,18.7205381 128.542011,20.8701636 L128.542011,27.761019 L126.802899,27.761019 L126.802899,20.5085443 C126.802899,18.6803582 125.803409,17.5754105 124.194231,17.5754105 C122.675006,17.5754105 121.415649,18.8511228 121.415649,20.7998487 L121.415649,27.761019 L119.686532,27.761019 L119.686532,16.2695633 L121.395659,16.2695633 L121.395659,17.9269848 C122.011438,16.7046795 123.271155,15.9466248 124.634006,15.9782589 C126.343133,15.9782589 127.552516,16.8220371 128.082246,18.0877045 C128.761899,16.7115424 130.131199,15.9782589 131.750373,15.9782589 C134.309066,15.9782589 135.668372,17.7863551 135.668372,20.3176897 Z M155.748121,24.7073454 L156.29784,26.2844071 C154.896697,27.4427881 153.134613,28.0686528 151.320381,28.0523234 C146.822678,28.0523234 143.524362,24.5968507 143.524362,20.0263854 C143.524362,15.47601 146.922627,12.0004473 151.280402,12.0004473 C153.589223,12.0004473 155.238381,12.9547203 156.047968,13.6176889 L155.478258,15.2047956 C154.30051,14.2453462 152.836279,13.7111952 151.320381,13.6880038 C147.922116,13.6880038 145.363423,16.420238 145.363423,20.0263854 C145.363423,23.6325327 147.802177,26.3647669 151.360361,26.3647669 C152.972883,26.356218 154.529193,25.7683414 155.748121,24.7073454 Z M159.596156,22.0152911 C159.596156,24.5968507 161.325273,26.4551717 163.774023,26.4551717 C166.232768,26.4551717 167.99187,24.5767607 167.99187,22.0152911 C167.99187,19.4739115 166.232768,17.5754105 163.774023,17.5754105 C161.305283,17.5754105 159.596156,19.4940015 159.596156,22.0152911 Z M157.807069,22.0152911 C157.807069,18.5497735 160.385753,15.9883039 163.794013,15.9883039 C165.3926,15.9488617 166.936849,16.5725248 168.063774,17.7126974 C169.190698,18.8528701 169.800909,20.4089932 169.750971,22.0152911 C169.750971,25.4607188 167.202273,28.0422784 163.774023,28.0422784 C160.345773,28.0422784 157.807069,25.5109437 157.807069,22.0152911 Z M187.961674,20.3076448 L187.961674,27.761019 L186.222562,27.761019 L186.222562,20.8400286 C186.222562,18.6803582 185.343011,17.5754105 183.643878,17.5754105 C182.044695,17.5754105 180.835312,18.7205381 180.835312,20.8701636 L180.835312,27.761019 L179.0962,27.761019 L179.0962,20.5085443 C179.0962,18.6803582 178.086716,17.5754105 176.477537,17.5754105 C174.958313,17.5754105 173.708951,18.8511228 173.708951,20.7998487 L173.708951,27.761019 L171.969839,27.761019 L171.969839,16.2695633 L173.688961,16.2695633 L173.688961,17.9269848 C174.30317,16.7080009 175.558036,15.9505276 176.917313,15.9782589 C178.636435,15.9782589 179.845817,16.8220371 180.375547,18.0877045 C181.0552,16.7115424 182.414506,15.9782589 184.043674,15.9782589 C186.592373,15.9782589 187.961674,17.7863551 187.961674,20.3176897 L187.961674,20.3076448 Z M190.860194,31.8895052 L190.860194,16.2695633 L192.529342,16.2695633 L192.529342,18.0776595 C193.418573,16.7488439 194.91402,15.959611 196.507311,15.9782589 C199.765647,15.9782589 202.104453,18.4794586 202.104453,21.9952012 C202.104453,25.5511237 199.875591,28.0523234 196.647239,28.0523234 C194.248464,28.0523234 192.949128,26.5053966 192.599306,25.9026979 L192.599306,31.8895052 L190.860194,31.8895052 Z M192.529342,21.9952012 C192.529342,24.8178402 194.288444,26.4551717 196.447342,26.4551717 C198.686198,26.4551717 200.315367,24.6269856 200.315367,21.9952012 C200.315367,19.2931019 198.596244,17.5754105 196.397367,17.5754105 C194.028576,17.5754105 192.529342,19.5844063 192.529342,21.9952012 Z M208.271305,28.0523234 C205.612662,28.0523234 204.233366,26.0634176 204.233366,23.4517231 L204.233366,16.2695633 L205.962484,16.2695633 L205.962484,23.522038 C205.962484,25.3502241 207.131886,26.4551717 208.671101,26.4551717 C210.430203,26.4551717 211.639585,25.1493245 211.639585,23.2508235 L211.639585,16.2695633 L213.398687,16.2695633 L213.398687,27.761019 L211.659575,27.761019 L211.659575,26.1035975 C210.966184,27.3234695 209.669084,28.0694822 208.271305,28.0523234 Z M216.407151,16.2695633 L216.407151,13.8587684 L218.146263,13.8587684 L218.146263,16.2695633 L220.654982,16.2695633 L220.654982,17.7461752 L218.156258,17.7461752 L218.156258,23.6727126 C218.156258,25.8122931 218.755952,26.324587 220.255186,26.324587 L220.744936,26.3044971 L220.744936,27.8514238 C220.744936,27.8514238 220.285171,27.9116937 219.685477,27.9116937 C217.396646,27.9116937 216.407151,26.4049468 216.407151,23.8233873 L216.407151,17.7461752 L215.07783,17.7461752 L215.07783,16.2695633 L216.417146,16.2695633 L216.407151,16.2695633 Z M222.7739,27.761019 L222.7739,16.2695633 L224.513012,16.2695633 L224.513012,27.761019 L222.7739,27.761019 Z M222.444069,13.3062946 C222.444069,12.643326 222.973798,12.1109421 223.633462,12.1109421 C224.313115,12.1109421 224.842844,12.643326 224.842844,13.3163396 C224.842855,13.6377789 224.71512,13.9459086 224.488025,14.1722555 C224.26093,14.3986023 223.953287,14.5244157 223.633462,14.521737 C222.973798,14.521737 222.444069,13.9893531 222.444069,13.3163396 L222.444069,13.3062946 Z M232.628869,15.9782589 C235.287512,15.9782589 236.646818,17.9671647 236.646818,20.5788592 L236.646818,27.761019 L234.9177,27.761019 L234.9177,20.5085443 C234.9177,18.6803582 233.768287,17.5754105 232.209083,17.5754105 C230.449981,17.5754105 229.240599,18.8812578 229.240599,20.7797588 L229.240599,27.761019 L227.501487,27.761019 L227.501487,16.2695633 L229.220609,16.2695633 L229.220609,17.9269848 C229.920413,16.708645 231.219193,15.9638634 232.618874,15.9782589 L232.628869,15.9782589 Z M240.165021,30.8548724 L240.784705,29.4887553 C241.22448,29.7499248 242.583786,30.4329833 244.232944,30.4329833 C246.411832,30.4329833 248.260888,29.5289352 248.260888,26.9674657 L248.260888,25.9529228 C247.392362,27.2943886 245.894971,28.088638 244.302909,28.0523234 C241.024582,28.0523234 238.785725,25.5511237 238.785725,22.0353811 C238.785725,18.4995486 241.044572,15.9782589 244.282919,15.9782589 C245.909583,15.9504218 247.437149,16.7616247 248.330852,18.1278844 L248.330852,16.2695633 L250,16.2695633 L250,26.1739123 C250,30.5233881 247.561245,32 244.262929,32 C242.763695,32 241.164511,31.4776611 240.165021,30.8548724 Z M248.330852,22.0353811 C248.330852,19.252922 246.59174,17.5754105 244.412853,17.5754105 C242.193985,17.5754105 240.544827,19.4035967 240.544827,22.0353811 C240.544827,24.7073454 242.253955,26.4551717 244.452832,26.4551717 C246.811628,26.4551717 248.330852,24.5164908 248.330852,22.0353811 Z" opacity=".9"/>
  </g>
</svg>
